<svg width="32" height="32" viewBox="0 0 32 32" fill="none" xmlns="http://www.w3.org/2000/svg">
<path d="M32 16C32 24.8366 24.8366 32 16 32C7.16344 32 0 24.8366 0 16C0 7.16344 7.16344 0 16 0C24.8366 0 32 7.16344 32 16Z" fill="#1E80FF"/>
<path d="M9.9043 10.2856C9.9043 9.23365 10.7571 8.38086 11.8091 8.38086H20.19C21.242 8.38086 22.0948 9.23365 22.0948 10.2856V21.7142C22.0948 22.7662 21.242 23.619 20.19 23.619H11.8091C10.7571 23.619 9.9043 22.7662 9.9043 21.7142V10.2856Z" fill="white"/>
<path fill-rule="evenodd" clip-rule="evenodd" d="M8.38086 12.9514C8.38086 12.5306 8.72198 12.1895 9.14276 12.1895H10.6666C11.0874 12.1895 11.4285 12.5306 11.4285 12.9514C11.4285 13.3721 11.0874 13.7133 10.6666 13.7133H9.14276C8.72198 13.7133 8.38086 13.3721 8.38086 12.9514Z" fill="#8EBFFF"/>
<path fill-rule="evenodd" clip-rule="evenodd" d="M8.38086 16.0002C8.38086 15.5794 8.72198 15.2383 9.14276 15.2383H10.6666C11.0874 15.2383 11.4285 15.5794 11.4285 16.0002C11.4285 16.421 11.0874 16.7621 10.6666 16.7621H9.14276C8.72198 16.7621 8.38086 16.421 8.38086 16.0002Z" fill="#8EBFFF"/>
<path fill-rule="evenodd" clip-rule="evenodd" d="M8.38086 19.0471C8.38086 18.6263 8.72198 18.2852 9.14276 18.2852H10.6666C11.0874 18.2852 11.4285 18.6263 11.4285 19.0471C11.4285 19.4678 11.0874 19.809 10.6666 19.809H9.14276C8.72198 19.809 8.38086 19.4678 8.38086 19.0471Z" fill="#8EBFFF"/>
<path fill-rule="evenodd" clip-rule="evenodd" d="M13.1848 16.5699C13.1848 16.3274 13.2811 16.0949 13.4526 15.9234L16.4241 12.9519C17.0192 12.3568 17.984 12.3568 18.5791 12.9519L19.4885 13.8613C20.0836 14.4564 20.0836 15.4212 19.4885 16.0163L16.517 18.9878C16.3455 19.1593 16.1129 19.2556 15.8704 19.2556L14.3276 19.2556C13.6964 19.2556 13.1847 18.7439 13.1847 18.1127L13.1848 16.5699ZM14.7086 16.8224L14.7086 17.7318L15.618 17.7318L18.411 14.9388L17.5016 14.0294L14.7086 16.8224Z" fill="#1E80FF"/>
</svg>
